# xmcd
#
# Track frame offsets: 
#        150
#        20130
#        43981
#        63962
#
# Disc length: 1166 seconds
#
# Revision: 0
# Processed by: cddbd v1.5.1PL2 Copyright (c) Steve Scherf et al.
# Submitted via: ExactAudioCopy v0.95a5
#
DISCID=34048c04
DTITLE=MISONO - KojinJugyou
DYEAR=2006
DGENRE=JPop
TTITLE0=KojinJugyou
TTITLE1=pinkies
TTITLE2=KojinJugyou-instrumental
TTITLE3=pinkies-instrumental
EXTD=
EXTT0=
EXTT1=
EXTT2=
EXTT3=
PLAYORDER=
